<svg xmlns="http://www.w3.org/2000/svg" xmlns:xlink="http://www.w3.org/1999/xlink" width="500" zoomAndPan="magnify" viewBox="0 0 375 374.999991" height="500" preserveAspectRatio="xMidYMid meet" version="1.0"><defs><clipPath id="9cf5b3d5d0"><path d="M 3 44 L 333 44 L 333 355 L 3 355 Z M 3 44 " clip-rule="nonzero"/></clipPath><clipPath id="c7777be243"><path d="M 3.503906 302.332031 L 285.4375 44.039062 L 333.007812 95.960938 L 51.074219 354.257812 Z M 3.503906 302.332031 " clip-rule="nonzero"/></clipPath><clipPath id="d2ec5b6e5e"><path d="M 3.503906 302.332031 L 285.398438 44.070312 L 332.96875 95.996094 L 51.074219 354.257812 Z M 3.503906 302.332031 " clip-rule="nonzero"/></clipPath><clipPath id="8008c62119"><path d="M 273 35 L 344 35 L 344 106 L 273 106 Z M 273 35 " clip-rule="nonzero"/></clipPath><clipPath id="d178aed2ca"><path d="M 259.003906 68.3125 L 310.929688 20.742188 L 358.5 72.664062 L 306.574219 120.234375 Z M 259.003906 68.3125 " clip-rule="nonzero"/></clipPath><clipPath id="68ef59914a"><path d="M 284.964844 44.527344 C 270.628906 57.664062 269.652344 79.933594 282.789062 94.273438 C 295.925781 108.613281 318.199219 109.585938 332.535156 96.449219 C 346.875 83.3125 347.847656 61.042969 334.714844 46.703125 C 321.578125 32.363281 299.304688 31.390625 284.964844 44.527344 Z M 284.964844 44.527344 " clip-rule="nonzero"/></clipPath><clipPath id="65ab2fa2b5"><path d="M 9 50 L 331 50 L 331 352 L 9 352 Z M 9 50 " clip-rule="nonzero"/></clipPath><clipPath id="fcdded4359"><path d="M 9.511719 301.328125 L 283.851562 49.988281 L 330.140625 100.515625 L 55.800781 351.855469 Z M 9.511719 301.328125 " clip-rule="nonzero"/></clipPath><clipPath id="d64ea710fe"><path d="M 9.511719 301.328125 L 283.816406 50.023438 L 330.105469 100.546875 L 55.800781 351.855469 Z M 9.511719 301.328125 " clip-rule="nonzero"/></clipPath><clipPath id="0d81b0d84f"><path d="M 274 39 L 344 39 L 344 108 L 274 108 Z M 274 39 " clip-rule="nonzero"/></clipPath><clipPath id="127dec4eaf"><path d="M 260.398438 71.320312 L 310.925781 25.03125 L 357.214844 75.554688 L 306.6875 121.84375 Z M 260.398438 71.320312 " clip-rule="nonzero"/></clipPath><clipPath id="cddb536e1d"><path d="M 285.664062 48.175781 C 271.710938 60.957031 270.761719 82.628906 283.542969 96.582031 C 296.328125 110.535156 318 111.484375 331.953125 98.699219 C 345.902344 85.917969 346.851562 64.246094 334.070312 50.292969 C 321.289062 36.339844 299.613281 35.390625 285.664062 48.175781 Z M 285.664062 48.175781 " clip-rule="nonzero"/></clipPath></defs><g clip-path="url(#9cf5b3d5d0)"><g clip-path="url(#c7777be243)"><g clip-path="url(#d2ec5b6e5e)"><path fill="#302f82" d="M 3.503906 302.332031 L 285.4375 44.039062 L 333.007812 95.960938 L 51.074219 354.257812 Z M 3.503906 302.332031 " fill-opacity="1" fill-rule="nonzero"/></g></g></g><g clip-path="url(#8008c62119)"><g clip-path="url(#d178aed2ca)"><g clip-path="url(#68ef59914a)"><path fill="#302f82" d="M 259.003906 68.3125 L 310.929688 20.742188 L 358.5 72.664062 L 306.574219 120.234375 Z M 259.003906 68.3125 " fill-opacity="1" fill-rule="nonzero"/></g></g></g><g clip-path="url(#65ab2fa2b5)"><g clip-path="url(#fcdded4359)"><g clip-path="url(#d64ea710fe)"><path fill="#5755fe" d="M 9.511719 301.328125 L 283.851562 49.988281 L 330.140625 100.515625 L 55.800781 351.855469 Z M 9.511719 301.328125 " fill-opacity="1" fill-rule="nonzero"/></g></g></g><g clip-path="url(#0d81b0d84f)"><g clip-path="url(#127dec4eaf)"><g clip-path="url(#cddb536e1d)"><path fill="#5755fe" d="M 260.398438 71.320312 L 310.925781 25.03125 L 357.214844 75.554688 L 306.6875 121.84375 Z M 260.398438 71.320312 " fill-opacity="1" fill-rule="nonzero"/></g></g></g></svg>